# xmcd
#
# Track frame offsets: 
#        150
#        10940
#        23298
#        36630
#        47448
#        60513
#        73995
#        88700
#        105173
#        123190
#        139028
#        154673
#
# Disc length: 2306 seconds
#
# Revision: 1
# Processed by: cddbd v1.4PL0 Copyright (c) Steve Scherf et al.
# Submitted via: ExactAudioCopy v0.90b4
#
DISCID=8f09000c
DTITLE=Ronnie Milsap - 35 All-Time #1 Hits! (Country Collection) - Dis
DTITLE=c 1
DYEAR=2001
DGENRE=Country
TTITLE0=Pure Love
TTITLE1=Please Don't Tell Me How The Story Ends
TTITLE2=(I'd Be) A Legend In My Time
TTITLE3=Daydreams About Night Things
TTITLE4=What Goes On When The Sun Goes Down
TTITLE5=(I'm A) Stand By My Woman Man
TTITLE6=Let My Love Be Your Pillow
TTITLE7=It Was Almost Like A Song
TTITLE8=What A Difference You've Made In My Life
TTITLE9=Only One Love In My Life
TTITLE10=Let's Take The Long Way Around The World
TTITLE11=Nobody Likes Sad Songs
EXTD=
EXTT0=
EXTT1=
EXTT2=
EXTT3=
EXTT4=
EXTT5=
EXTT6=
EXTT7=
EXTT8=
EXTT9=
EXTT10=
EXTT11=
PLAYORDER=
